<mxfile host="app.diagrams.net" agent="Mozilla/5.0 (X11; Linux x86_64; rv:134.0) Gecko/20100101 Firefox/134.0" version="26.0.5" pages="8">
  <diagram name="Page-1" id="P5An86bhmq9kO7vAwXX3">
    <mxGraphModel dx="1079" dy="735" grid="1" gridSize="10" guides="1" tooltips="1" connect="1" arrows="1" fold="1" page="1" pageScale="1" pageWidth="850" pageHeight="1100" background="none" math="0" shadow="0" adaptiveColors="auto">
      <root>
        <mxCell id="0" />
        <mxCell id="1" parent="0" />
        <mxCell id="5TeGuhc-esVz1vt5C5Wg-3" value="Client" style="shape=umlLifeline;perimeter=lifelinePerimeter;whiteSpace=wrap;html=1;container=1;dropTarget=0;collapsible=0;recursiveResize=0;outlineConnect=0;portConstraint=eastwest;newEdgeStyle={&quot;edgeStyle&quot;:&quot;elbowEdgeStyle&quot;,&quot;elbow&quot;:&quot;vertical&quot;,&quot;curved&quot;:0,&quot;rounded&quot;:0};labelBackgroundColor=none;" parent="1" vertex="1">
          <mxGeometry x="230" y="240" width="100" height="330" as="geometry" />
        </mxCell>
        <mxCell id="5TeGuhc-esVz1vt5C5Wg-17" value="" style="html=1;points=[[0,0,0,0,5],[0,1,0,0,-5],[1,0,0,0,5],[1,1,0,0,-5]];perimeter=orthogonalPerimeter;outlineConnect=0;targetShapes=umlLifeline;portConstraint=eastwest;newEdgeStyle={&quot;curved&quot;:0,&quot;rounded&quot;:0};labelBackgroundColor=none;" parent="5TeGuhc-esVz1vt5C5Wg-3" vertex="1">
          <mxGeometry x="45" y="60" width="10" height="210" as="geometry" />
        </mxCell>
        <mxCell id="5TeGuhc-esVz1vt5C5Wg-4" value="" style="shape=umlLifeline;perimeter=lifelinePerimeter;whiteSpace=wrap;html=1;container=1;dropTarget=0;collapsible=0;recursiveResize=0;outlineConnect=0;portConstraint=eastwest;newEdgeStyle={&quot;curved&quot;:0,&quot;rounded&quot;:0};participant=umlActor;labelBackgroundColor=none;" parent="1" vertex="1">
          <mxGeometry x="100" y="240" width="20" height="330" as="geometry" />
        </mxCell>
        <mxCell id="5TeGuhc-esVz1vt5C5Wg-5" value="" style="endArrow=classic;html=1;rounded=0;labelBackgroundColor=none;fontColor=default;" parent="1" source="5TeGuhc-esVz1vt5C5Wg-4" target="5TeGuhc-esVz1vt5C5Wg-3" edge="1">
          <mxGeometry width="50" height="50" relative="1" as="geometry">
            <mxPoint x="320" y="330" as="sourcePoint" />
            <mxPoint x="370" y="280" as="targetPoint" />
            <Array as="points">
              <mxPoint x="160" y="310" />
            </Array>
          </mxGeometry>
        </mxCell>
        <mxCell id="5TeGuhc-esVz1vt5C5Wg-6" value="sendRequest(requestDetails)" style="edgeLabel;html=1;align=center;verticalAlign=middle;resizable=0;points=[];labelBackgroundColor=none;" parent="5TeGuhc-esVz1vt5C5Wg-5" vertex="1" connectable="0">
          <mxGeometry x="0.2435" relative="1" as="geometry">
            <mxPoint x="-22" y="-10" as="offset" />
          </mxGeometry>
        </mxCell>
        <mxCell id="5TeGuhc-esVz1vt5C5Wg-7" value="&lt;div&gt;System&lt;/div&gt;&lt;div&gt;Manger&lt;br&gt;&lt;/div&gt;" style="shape=umlLifeline;perimeter=lifelinePerimeter;whiteSpace=wrap;html=1;container=1;dropTarget=0;collapsible=0;recursiveResize=0;outlineConnect=0;portConstraint=eastwest;newEdgeStyle={&quot;edgeStyle&quot;:&quot;elbowEdgeStyle&quot;,&quot;elbow&quot;:&quot;vertical&quot;,&quot;curved&quot;:0,&quot;rounded&quot;:0};labelBackgroundColor=none;" parent="1" vertex="1">
          <mxGeometry x="440" y="240" width="100" height="330" as="geometry" />
        </mxCell>
        <mxCell id="5TeGuhc-esVz1vt5C5Wg-18" value="" style="html=1;points=[[0,0,0,0,5],[0,1,0,0,-5],[1,0,0,0,5],[1,1,0,0,-5]];perimeter=orthogonalPerimeter;outlineConnect=0;targetShapes=umlLifeline;portConstraint=eastwest;newEdgeStyle={&quot;curved&quot;:0,&quot;rounded&quot;:0};labelBackgroundColor=none;" parent="5TeGuhc-esVz1vt5C5Wg-7" vertex="1">
          <mxGeometry x="45" y="95" width="10" height="165" as="geometry" />
        </mxCell>
        <mxCell id="5TeGuhc-esVz1vt5C5Wg-8" value="" style="endArrow=classic;html=1;rounded=0;labelBackgroundColor=none;fontColor=default;" parent="1" edge="1">
          <mxGeometry width="50" height="50" relative="1" as="geometry">
            <mxPoint x="279.6666666666665" y="350" as="sourcePoint" />
            <mxPoint x="489.5" y="350" as="targetPoint" />
          </mxGeometry>
        </mxCell>
        <mxCell id="5TeGuhc-esVz1vt5C5Wg-9" value="addRequest(requestDetails)" style="edgeLabel;html=1;align=center;verticalAlign=middle;resizable=0;points=[];labelBackgroundColor=none;" parent="5TeGuhc-esVz1vt5C5Wg-8" vertex="1" connectable="0">
          <mxGeometry x="-0.0087" y="-4" relative="1" as="geometry">
            <mxPoint x="6" y="-14" as="offset" />
          </mxGeometry>
        </mxCell>
        <mxCell id="5TeGuhc-esVz1vt5C5Wg-10" value="&lt;div&gt;Data&lt;/div&gt;&lt;div&gt;Handler&lt;br&gt;&lt;/div&gt;" style="shape=umlLifeline;perimeter=lifelinePerimeter;whiteSpace=wrap;html=1;container=1;dropTarget=0;collapsible=0;recursiveResize=0;outlineConnect=0;portConstraint=eastwest;newEdgeStyle={&quot;edgeStyle&quot;:&quot;elbowEdgeStyle&quot;,&quot;elbow&quot;:&quot;vertical&quot;,&quot;curved&quot;:0,&quot;rounded&quot;:0};labelBackgroundColor=none;" parent="1" vertex="1">
          <mxGeometry x="650" y="240" width="100" height="330" as="geometry" />
        </mxCell>
        <mxCell id="5TeGuhc-esVz1vt5C5Wg-21" value="" style="html=1;points=[[0,0,0,0,5],[0,1,0,0,-5],[1,0,0,0,5],[1,1,0,0,-5]];perimeter=orthogonalPerimeter;outlineConnect=0;targetShapes=umlLifeline;portConstraint=eastwest;newEdgeStyle={&quot;curved&quot;:0,&quot;rounded&quot;:0};labelBackgroundColor=none;" parent="5TeGuhc-esVz1vt5C5Wg-10" vertex="1">
          <mxGeometry x="45" y="137.5" width="10" height="80" as="geometry" />
        </mxCell>
        <mxCell id="5TeGuhc-esVz1vt5C5Wg-12" value="" style="endArrow=classic;html=1;rounded=0;labelBackgroundColor=none;fontColor=default;" parent="1" edge="1">
          <mxGeometry width="50" height="50" relative="1" as="geometry">
            <mxPoint x="489.6666666666665" y="390" as="sourcePoint" />
            <mxPoint x="699.5" y="390" as="targetPoint" />
          </mxGeometry>
        </mxCell>
        <mxCell id="5TeGuhc-esVz1vt5C5Wg-13" value="saveData()" style="edgeLabel;html=1;align=center;verticalAlign=middle;resizable=0;points=[];labelBackgroundColor=none;" parent="5TeGuhc-esVz1vt5C5Wg-12" vertex="1" connectable="0">
          <mxGeometry x="-0.3503" relative="1" as="geometry">
            <mxPoint x="42" y="-10" as="offset" />
          </mxGeometry>
        </mxCell>
        <mxCell id="5TeGuhc-esVz1vt5C5Wg-15" value="" style="endArrow=classic;html=1;rounded=0;labelBackgroundColor=none;fontColor=default;" parent="1" edge="1">
          <mxGeometry width="50" height="50" relative="1" as="geometry">
            <mxPoint x="489.5" y="490" as="sourcePoint" />
            <mxPoint x="279.6666666666665" y="490" as="targetPoint" />
          </mxGeometry>
        </mxCell>
        <mxCell id="5TeGuhc-esVz1vt5C5Wg-16" value="confirmSubmission()" style="edgeLabel;html=1;align=center;verticalAlign=middle;resizable=0;points=[];labelBackgroundColor=none;" parent="5TeGuhc-esVz1vt5C5Wg-15" vertex="1" connectable="0">
          <mxGeometry x="-0.1025" y="2" relative="1" as="geometry">
            <mxPoint y="-12" as="offset" />
          </mxGeometry>
        </mxCell>
        <mxCell id="5TeGuhc-esVz1vt5C5Wg-19" value="" style="endArrow=classic;html=1;rounded=0;labelBackgroundColor=none;fontColor=default;" parent="1" edge="1">
          <mxGeometry width="50" height="50" relative="1" as="geometry">
            <mxPoint x="699.5" y="450" as="sourcePoint" />
            <mxPoint x="489.6666666666665" y="450" as="targetPoint" />
          </mxGeometry>
        </mxCell>
        <mxCell id="5TeGuhc-esVz1vt5C5Wg-20" value="SendSubmissionDetails()" style="edgeLabel;html=1;align=center;verticalAlign=middle;resizable=0;points=[];labelBackgroundColor=none;" parent="5TeGuhc-esVz1vt5C5Wg-19" vertex="1" connectable="0">
          <mxGeometry x="-0.0945" y="3" relative="1" as="geometry">
            <mxPoint x="-4" y="-13" as="offset" />
          </mxGeometry>
        </mxCell>
        <mxCell id="5TeGuhc-esVz1vt5C5Wg-22" value="&lt;font data-font-src=&quot;https://fonts.googleapis.com/css?family=Vazirmatn&quot; face=&quot;Vazirmatn&quot;&gt;ثبت درخواست&lt;br&gt;&lt;/font&gt;" style="swimlane;whiteSpace=wrap;html=1;labelBackgroundColor=none;" parent="1" vertex="1">
          <mxGeometry x="60" y="160" width="720" height="450" as="geometry" />
        </mxCell>
      </root>
    </mxGraphModel>
  </diagram>
  <diagram id="CgJptpYGcHcfAVrDYGNF" name="Page-2">
    <mxGraphModel dx="1079" dy="735" grid="1" gridSize="10" guides="1" tooltips="1" connect="1" arrows="1" fold="1" page="1" pageScale="1" pageWidth="850" pageHeight="1100" math="0" shadow="0">
      <root>
        <mxCell id="0" />
        <mxCell id="1" parent="0" />
        <mxCell id="Ik3z233nA-b7LlfOSzA3-1" value="Client" style="shape=umlLifeline;perimeter=lifelinePerimeter;whiteSpace=wrap;html=1;container=1;dropTarget=0;collapsible=0;recursiveResize=0;outlineConnect=0;portConstraint=eastwest;newEdgeStyle={&quot;edgeStyle&quot;:&quot;elbowEdgeStyle&quot;,&quot;elbow&quot;:&quot;vertical&quot;,&quot;curved&quot;:0,&quot;rounded&quot;:0};labelBackgroundColor=none;" parent="1" vertex="1">
          <mxGeometry x="560" y="250" width="100" height="330" as="geometry" />
        </mxCell>
        <mxCell id="U7vcVs04AaiKsD-blch1-15" value="" style="html=1;points=[[0,0,0,0,5],[0,1,0,0,-5],[1,0,0,0,5],[1,1,0,0,-5]];perimeter=orthogonalPerimeter;outlineConnect=0;targetShapes=umlLifeline;portConstraint=eastwest;newEdgeStyle={&quot;curved&quot;:0,&quot;rounded&quot;:0};labelBackgroundColor=none;" parent="Ik3z233nA-b7LlfOSzA3-1" vertex="1">
          <mxGeometry x="45" y="60" width="10" height="260" as="geometry" />
        </mxCell>
        <mxCell id="Ik3z233nA-b7LlfOSzA3-3" value="" style="shape=umlLifeline;perimeter=lifelinePerimeter;whiteSpace=wrap;html=1;container=1;dropTarget=0;collapsible=0;recursiveResize=0;outlineConnect=0;portConstraint=eastwest;newEdgeStyle={&quot;curved&quot;:0,&quot;rounded&quot;:0};participant=umlActor;labelBackgroundColor=none;" parent="1" vertex="1">
          <mxGeometry x="430" y="250" width="20" height="330" as="geometry" />
        </mxCell>
        <mxCell id="Ik3z233nA-b7LlfOSzA3-6" value="&lt;div&gt;System&lt;/div&gt;&lt;div&gt;Manger&lt;br&gt;&lt;/div&gt;" style="shape=umlLifeline;perimeter=lifelinePerimeter;whiteSpace=wrap;html=1;container=1;dropTarget=0;collapsible=0;recursiveResize=0;outlineConnect=0;portConstraint=eastwest;newEdgeStyle={&quot;edgeStyle&quot;:&quot;elbowEdgeStyle&quot;,&quot;elbow&quot;:&quot;vertical&quot;,&quot;curved&quot;:0,&quot;rounded&quot;:0};labelBackgroundColor=none;" parent="1" vertex="1">
          <mxGeometry x="770" y="250" width="100" height="330" as="geometry" />
        </mxCell>
        <mxCell id="U7vcVs04AaiKsD-blch1-16" value="" style="html=1;points=[[0,0,0,0,5],[0,1,0,0,-5],[1,0,0,0,5],[1,1,0,0,-5]];perimeter=orthogonalPerimeter;outlineConnect=0;targetShapes=umlLifeline;portConstraint=eastwest;newEdgeStyle={&quot;curved&quot;:0,&quot;rounded&quot;:0};labelBackgroundColor=none;" parent="Ik3z233nA-b7LlfOSzA3-6" vertex="1">
          <mxGeometry x="45" y="100" width="10" height="220" as="geometry" />
        </mxCell>
        <mxCell id="Ik3z233nA-b7LlfOSzA3-10" value="&lt;div&gt;Data&lt;/div&gt;&lt;div&gt;Handler&lt;br&gt;&lt;/div&gt;" style="shape=umlLifeline;perimeter=lifelinePerimeter;whiteSpace=wrap;html=1;container=1;dropTarget=0;collapsible=0;recursiveResize=0;outlineConnect=0;portConstraint=eastwest;newEdgeStyle={&quot;edgeStyle&quot;:&quot;elbowEdgeStyle&quot;,&quot;elbow&quot;:&quot;vertical&quot;,&quot;curved&quot;:0,&quot;rounded&quot;:0};labelBackgroundColor=none;" parent="1" vertex="1">
          <mxGeometry x="980" y="250" width="100" height="330" as="geometry" />
        </mxCell>
        <mxCell id="U7vcVs04AaiKsD-blch1-17" value="" style="html=1;points=[[0,0,0,0,5],[0,1,0,0,-5],[1,0,0,0,5],[1,1,0,0,-5]];perimeter=orthogonalPerimeter;outlineConnect=0;targetShapes=umlLifeline;portConstraint=eastwest;newEdgeStyle={&quot;curved&quot;:0,&quot;rounded&quot;:0};labelBackgroundColor=none;" parent="Ik3z233nA-b7LlfOSzA3-10" vertex="1">
          <mxGeometry x="45" y="150" width="10" height="70" as="geometry" />
        </mxCell>
        <mxCell id="Ik3z233nA-b7LlfOSzA3-18" value="&lt;font face=&quot;Vazirmatn&quot;&gt;امتیاز و نظردادن به عملکرد درخواست&lt;/font&gt;" style="swimlane;whiteSpace=wrap;html=1;labelBackgroundColor=none;" parent="1" vertex="1">
          <mxGeometry x="390" y="170" width="920" height="450" as="geometry" />
        </mxCell>
        <mxCell id="Ik3z233nA-b7LlfOSzA3-19" value="Manager" style="shape=umlLifeline;perimeter=lifelinePerimeter;whiteSpace=wrap;html=1;container=1;dropTarget=0;collapsible=0;recursiveResize=0;outlineConnect=0;portConstraint=eastwest;newEdgeStyle={&quot;edgeStyle&quot;:&quot;elbowEdgeStyle&quot;,&quot;elbow&quot;:&quot;vertical&quot;,&quot;curved&quot;:0,&quot;rounded&quot;:0};labelBackgroundColor=none;" parent="Ik3z233nA-b7LlfOSzA3-18" vertex="1">
          <mxGeometry x="800" y="80" width="100" height="330" as="geometry" />
        </mxCell>
        <mxCell id="U7vcVs04AaiKsD-blch1-19" value="" style="html=1;points=[[0,0,0,0,5],[0,1,0,0,-5],[1,0,0,0,5],[1,1,0,0,-5]];perimeter=orthogonalPerimeter;outlineConnect=0;targetShapes=umlLifeline;portConstraint=eastwest;newEdgeStyle={&quot;curved&quot;:0,&quot;rounded&quot;:0};labelBackgroundColor=none;" parent="Ik3z233nA-b7LlfOSzA3-19" vertex="1">
          <mxGeometry x="45" y="220" width="10" height="80" as="geometry" />
        </mxCell>
        <mxCell id="U7vcVs04AaiKsD-blch1-3" value="" style="endArrow=classic;html=1;rounded=0;fontColor=default;labelBackgroundColor=none;" parent="Ik3z233nA-b7LlfOSzA3-18" source="Ik3z233nA-b7LlfOSzA3-6" target="Ik3z233nA-b7LlfOSzA3-10" edge="1">
          <mxGeometry width="50" height="50" relative="1" as="geometry">
            <mxPoint x="580" y="190" as="sourcePoint" />
            <mxPoint x="630" y="140" as="targetPoint" />
          </mxGeometry>
        </mxCell>
        <mxCell id="U7vcVs04AaiKsD-blch1-4" value="saveData()" style="edgeLabel;html=1;align=center;verticalAlign=middle;resizable=0;points=[];labelBackgroundColor=none;" parent="U7vcVs04AaiKsD-blch1-3" vertex="1" connectable="0">
          <mxGeometry x="0.3857" y="3" relative="1" as="geometry">
            <mxPoint x="-45" y="-12" as="offset" />
          </mxGeometry>
        </mxCell>
        <mxCell id="U7vcVs04AaiKsD-blch1-7" value="" style="endArrow=classic;html=1;rounded=0;fontColor=default;labelBackgroundColor=none;" parent="Ik3z233nA-b7LlfOSzA3-18" edge="1">
          <mxGeometry width="50" height="50" relative="1" as="geometry">
            <mxPoint x="429.6666666666665" y="320" as="sourcePoint" />
            <mxPoint x="849.5" y="320" as="targetPoint" />
          </mxGeometry>
        </mxCell>
        <mxCell id="U7vcVs04AaiKsD-blch1-8" value="notifyFeedback(requestID, feedbackDetails)" style="edgeLabel;html=1;align=center;verticalAlign=middle;resizable=0;points=[];labelBackgroundColor=none;" parent="U7vcVs04AaiKsD-blch1-7" vertex="1" connectable="0">
          <mxGeometry x="0.3688" y="-1" relative="1" as="geometry">
            <mxPoint x="-87" y="9" as="offset" />
          </mxGeometry>
        </mxCell>
        <mxCell id="U7vcVs04AaiKsD-blch1-11" value="" style="endArrow=classic;html=1;rounded=0;fontColor=default;labelBackgroundColor=none;" parent="Ik3z233nA-b7LlfOSzA3-18" edge="1">
          <mxGeometry width="50" height="50" relative="1" as="geometry">
            <mxPoint x="849.5" y="360" as="sourcePoint" />
            <mxPoint x="429.6666666666665" y="360" as="targetPoint" />
          </mxGeometry>
        </mxCell>
        <mxCell id="U7vcVs04AaiKsD-blch1-12" value="acknowledgeFeedback()" style="edgeLabel;html=1;align=center;verticalAlign=middle;resizable=0;points=[];labelBackgroundColor=none;" parent="U7vcVs04AaiKsD-blch1-11" vertex="1" connectable="0">
          <mxGeometry x="-0.611" y="1" relative="1" as="geometry">
            <mxPoint x="-198" y="9" as="offset" />
          </mxGeometry>
        </mxCell>
        <mxCell id="1baYMyNBDGH_gd1cWEgZ-1" value="" style="endArrow=classic;html=1;rounded=0;fontColor=default;labelBackgroundColor=none;" parent="1" source="Ik3z233nA-b7LlfOSzA3-3" target="Ik3z233nA-b7LlfOSzA3-1" edge="1">
          <mxGeometry width="50" height="50" relative="1" as="geometry">
            <mxPoint x="790" y="310" as="sourcePoint" />
            <mxPoint x="840" y="260" as="targetPoint" />
            <Array as="points">
              <mxPoint x="530" y="330" />
            </Array>
          </mxGeometry>
        </mxCell>
        <mxCell id="1baYMyNBDGH_gd1cWEgZ-2" value="sendRespond(requestID, rating, feedbackText)" style="edgeLabel;html=1;align=center;verticalAlign=middle;resizable=0;points=[];labelBackgroundColor=none;" parent="1baYMyNBDGH_gd1cWEgZ-1" vertex="1" connectable="0">
          <mxGeometry x="0.3093" y="1" relative="1" as="geometry">
            <mxPoint x="-21" y="21" as="offset" />
          </mxGeometry>
        </mxCell>
        <mxCell id="U7vcVs04AaiKsD-blch1-1" value="" style="endArrow=classic;html=1;rounded=0;fontColor=default;labelBackgroundColor=none;" parent="1" source="Ik3z233nA-b7LlfOSzA3-1" target="Ik3z233nA-b7LlfOSzA3-6" edge="1">
          <mxGeometry width="50" height="50" relative="1" as="geometry">
            <mxPoint x="730" y="360" as="sourcePoint" />
            <mxPoint x="780" y="310" as="targetPoint" />
            <Array as="points">
              <mxPoint x="690" y="370" />
            </Array>
          </mxGeometry>
        </mxCell>
        <mxCell id="U7vcVs04AaiKsD-blch1-2" value="updateRequest(requestID, feedbackDetails)" style="edgeLabel;html=1;align=center;verticalAlign=middle;resizable=0;points=[];labelBackgroundColor=none;" parent="U7vcVs04AaiKsD-blch1-1" vertex="1" connectable="0">
          <mxGeometry x="0.0445" relative="1" as="geometry">
            <mxPoint y="20" as="offset" />
          </mxGeometry>
        </mxCell>
        <mxCell id="U7vcVs04AaiKsD-blch1-5" value="" style="endArrow=classic;html=1;rounded=0;fontColor=default;labelBackgroundColor=none;" parent="1" source="Ik3z233nA-b7LlfOSzA3-10" target="Ik3z233nA-b7LlfOSzA3-6" edge="1">
          <mxGeometry width="50" height="50" relative="1" as="geometry">
            <mxPoint x="950" y="210" as="sourcePoint" />
            <mxPoint x="1000" y="160" as="targetPoint" />
            <Array as="points">
              <mxPoint x="920" y="450" />
            </Array>
          </mxGeometry>
        </mxCell>
        <mxCell id="U7vcVs04AaiKsD-blch1-6" value="confirmSubmission()" style="edgeLabel;html=1;align=center;verticalAlign=middle;resizable=0;points=[];labelBackgroundColor=none;" parent="U7vcVs04AaiKsD-blch1-5" vertex="1" connectable="0">
          <mxGeometry x="-0.1263" relative="1" as="geometry">
            <mxPoint x="-8" y="-10" as="offset" />
          </mxGeometry>
        </mxCell>
        <mxCell id="U7vcVs04AaiKsD-blch1-13" value="" style="endArrow=classic;html=1;rounded=0;fontColor=default;labelBackgroundColor=none;" parent="1" source="Ik3z233nA-b7LlfOSzA3-6" target="Ik3z233nA-b7LlfOSzA3-1" edge="1">
          <mxGeometry width="50" height="50" relative="1" as="geometry">
            <mxPoint x="890" y="340" as="sourcePoint" />
            <mxPoint x="940" y="290" as="targetPoint" />
            <Array as="points">
              <mxPoint x="710" y="560" />
            </Array>
          </mxGeometry>
        </mxCell>
        <mxCell id="U7vcVs04AaiKsD-blch1-14" value="confirmFeedbackUpdate()" style="edgeLabel;html=1;align=center;verticalAlign=middle;resizable=0;points=[];labelBackgroundColor=none;" parent="U7vcVs04AaiKsD-blch1-13" vertex="1" connectable="0">
          <mxGeometry x="-0.3566" y="-1" relative="1" as="geometry">
            <mxPoint x="-22" y="-9" as="offset" />
          </mxGeometry>
        </mxCell>
      </root>
    </mxGraphModel>
  </diagram>
  <diagram id="QJXihTTvTfe4P7bZgrKf" name="Page-3">
    <mxGraphModel dx="1079" dy="735" grid="1" gridSize="10" guides="1" tooltips="1" connect="1" arrows="1" fold="1" page="1" pageScale="1" pageWidth="850" pageHeight="1100" math="0" shadow="0">
      <root>
        <mxCell id="0" />
        <mxCell id="1" parent="0" />
        <mxCell id="44zXDO8Drx6OMzfm2gsY-1" value="&lt;div&gt;System&lt;/div&gt;&lt;div&gt;Manager&lt;br&gt;&lt;/div&gt;" style="shape=umlLifeline;perimeter=lifelinePerimeter;whiteSpace=wrap;html=1;container=1;dropTarget=0;collapsible=0;recursiveResize=0;outlineConnect=0;portConstraint=eastwest;newEdgeStyle={&quot;edgeStyle&quot;:&quot;elbowEdgeStyle&quot;,&quot;elbow&quot;:&quot;vertical&quot;,&quot;curved&quot;:0,&quot;rounded&quot;:0};labelBackgroundColor=none;" parent="1" vertex="1">
          <mxGeometry x="340" y="140" width="100" height="330" as="geometry" />
        </mxCell>
        <mxCell id="jnT09mWjpSllmfHxPQbR-4" value="" style="html=1;points=[[0,0,0,0,5],[0,1,0,0,-5],[1,0,0,0,5],[1,1,0,0,-5]];perimeter=orthogonalPerimeter;outlineConnect=0;targetShapes=umlLifeline;portConstraint=eastwest;newEdgeStyle={&quot;curved&quot;:0,&quot;rounded&quot;:0};labelBackgroundColor=none;" parent="44zXDO8Drx6OMzfm2gsY-1" vertex="1">
          <mxGeometry x="45" y="80" width="10" height="190" as="geometry" />
        </mxCell>
        <mxCell id="44zXDO8Drx6OMzfm2gsY-3" value="Driver" style="shape=umlLifeline;perimeter=lifelinePerimeter;whiteSpace=wrap;html=1;container=1;dropTarget=0;collapsible=0;recursiveResize=0;outlineConnect=0;portConstraint=eastwest;newEdgeStyle={&quot;curved&quot;:0,&quot;rounded&quot;:0};participant=umlActor;labelBackgroundColor=none;size=40;" parent="1" vertex="1">
          <mxGeometry x="210" y="140" width="20" height="330" as="geometry" />
        </mxCell>
        <mxCell id="44zXDO8Drx6OMzfm2gsY-4" value="&lt;div&gt;Data&lt;/div&gt;&lt;div&gt;Handler&lt;br&gt;&lt;/div&gt;" style="shape=umlLifeline;perimeter=lifelinePerimeter;whiteSpace=wrap;html=1;container=1;dropTarget=0;collapsible=0;recursiveResize=0;outlineConnect=0;portConstraint=eastwest;newEdgeStyle={&quot;edgeStyle&quot;:&quot;elbowEdgeStyle&quot;,&quot;elbow&quot;:&quot;vertical&quot;,&quot;curved&quot;:0,&quot;rounded&quot;:0};labelBackgroundColor=none;" parent="1" vertex="1">
          <mxGeometry x="550" y="140" width="100" height="330" as="geometry" />
        </mxCell>
        <mxCell id="jnT09mWjpSllmfHxPQbR-5" value="" style="html=1;points=[[0,0,0,0,5],[0,1,0,0,-5],[1,0,0,0,5],[1,1,0,0,-5]];perimeter=orthogonalPerimeter;outlineConnect=0;targetShapes=umlLifeline;portConstraint=eastwest;newEdgeStyle={&quot;curved&quot;:0,&quot;rounded&quot;:0};labelBackgroundColor=none;" parent="44zXDO8Drx6OMzfm2gsY-4" vertex="1">
          <mxGeometry x="45" y="190" width="10" height="50" as="geometry" />
        </mxCell>
        <mxCell id="44zXDO8Drx6OMzfm2gsY-8" value="&lt;div&gt;&lt;font face=&quot;Vazirmatn&quot;&gt;قبول کردن درخواست&lt;br&gt;&lt;/font&gt;&lt;/div&gt;" style="swimlane;whiteSpace=wrap;html=1;labelBackgroundColor=none;" parent="1" vertex="1">
          <mxGeometry x="170" y="60" width="510" height="450" as="geometry" />
        </mxCell>
        <mxCell id="44zXDO8Drx6OMzfm2gsY-25" value="" style="endArrow=classic;html=1;rounded=0;fontColor=default;labelBackgroundColor=none;" parent="44zXDO8Drx6OMzfm2gsY-8" edge="1">
          <mxGeometry width="50" height="50" relative="1" as="geometry">
            <mxPoint x="49.78571428571422" y="170.0000000000001" as="sourcePoint" />
            <mxPoint x="220" y="170" as="targetPoint" />
          </mxGeometry>
        </mxCell>
        <mxCell id="44zXDO8Drx6OMzfm2gsY-26" value="acceptRequest(requestID)" style="text;html=1;align=center;verticalAlign=middle;resizable=0;points=[];autosize=1;strokeColor=none;fillColor=none;labelBackgroundColor=none;" parent="44zXDO8Drx6OMzfm2gsY-8" vertex="1">
          <mxGeometry x="50" y="140" width="160" height="30" as="geometry" />
        </mxCell>
        <mxCell id="44zXDO8Drx6OMzfm2gsY-28" value="" style="endArrow=classic;html=1;rounded=0;fontColor=default;labelBackgroundColor=none;" parent="44zXDO8Drx6OMzfm2gsY-8" edge="1">
          <mxGeometry width="50" height="50" relative="1" as="geometry">
            <mxPoint x="219.99571428571423" y="200.0000000000001" as="sourcePoint" />
            <mxPoint x="219.99571428571423" y="220.0000000000001" as="targetPoint" />
            <Array as="points">
              <mxPoint x="280" y="200" />
              <mxPoint x="280" y="210" />
              <mxPoint x="280" y="220" />
            </Array>
          </mxGeometry>
        </mxCell>
        <mxCell id="44zXDO8Drx6OMzfm2gsY-29" value="findRequest(requestID)" style="edgeLabel;html=1;align=center;verticalAlign=middle;resizable=0;points=[];labelBackgroundColor=none;" parent="44zXDO8Drx6OMzfm2gsY-28" vertex="1" connectable="0">
          <mxGeometry x="0.4755" y="-1" relative="1" as="geometry">
            <mxPoint x="54" y="-9" as="offset" />
          </mxGeometry>
        </mxCell>
        <mxCell id="jnT09mWjpSllmfHxPQbR-3" value="" style="html=1;points=[[0,0,0,0,5],[0,1,0,0,-5],[1,0,0,0,5],[1,1,0,0,-5]];perimeter=orthogonalPerimeter;outlineConnect=0;targetShapes=umlLifeline;portConstraint=eastwest;newEdgeStyle={&quot;curved&quot;:0,&quot;rounded&quot;:0};labelBackgroundColor=none;" parent="44zXDO8Drx6OMzfm2gsY-8" vertex="1">
          <mxGeometry x="45" y="160" width="10" height="190" as="geometry" />
        </mxCell>
        <mxCell id="44zXDO8Drx6OMzfm2gsY-31" value="" style="endArrow=classic;html=1;rounded=0;fontColor=default;elbow=horizontal;labelBackgroundColor=none;" parent="1" source="44zXDO8Drx6OMzfm2gsY-1" target="44zXDO8Drx6OMzfm2gsY-1" edge="1">
          <mxGeometry width="50" height="50" relative="1" as="geometry">
            <mxPoint x="460" y="330" as="sourcePoint" />
            <mxPoint x="510" y="280" as="targetPoint" />
            <Array as="points">
              <mxPoint x="450" y="310" />
            </Array>
          </mxGeometry>
        </mxCell>
        <mxCell id="44zXDO8Drx6OMzfm2gsY-32" value="updateRequestStatus(requestID, &quot;Accepted&quot;)" style="edgeLabel;html=1;align=center;verticalAlign=middle;resizable=0;points=[];labelBackgroundColor=none;" parent="44zXDO8Drx6OMzfm2gsY-31" vertex="1" connectable="0">
          <mxGeometry x="0.4822" y="-3" relative="1" as="geometry">
            <mxPoint x="84" y="-7" as="offset" />
          </mxGeometry>
        </mxCell>
        <mxCell id="44zXDO8Drx6OMzfm2gsY-33" value="" style="endArrow=classic;html=1;rounded=0;fontColor=default;labelBackgroundColor=none;" parent="1" source="44zXDO8Drx6OMzfm2gsY-1" target="44zXDO8Drx6OMzfm2gsY-4" edge="1">
          <mxGeometry width="50" height="50" relative="1" as="geometry">
            <mxPoint x="460" y="330" as="sourcePoint" />
            <mxPoint x="510" y="280" as="targetPoint" />
            <Array as="points">
              <mxPoint x="500" y="340" />
            </Array>
          </mxGeometry>
        </mxCell>
        <mxCell id="44zXDO8Drx6OMzfm2gsY-34" value="saveData(request)" style="edgeLabel;html=1;align=center;verticalAlign=middle;resizable=0;points=[];labelBackgroundColor=none;" parent="44zXDO8Drx6OMzfm2gsY-33" vertex="1" connectable="0">
          <mxGeometry x="0.2187" y="-2" relative="1" as="geometry">
            <mxPoint x="-28" y="-12" as="offset" />
          </mxGeometry>
        </mxCell>
        <mxCell id="44zXDO8Drx6OMzfm2gsY-35" value="" style="endArrow=classic;html=1;rounded=0;fontColor=default;labelBackgroundColor=none;" parent="1" source="44zXDO8Drx6OMzfm2gsY-4" target="44zXDO8Drx6OMzfm2gsY-1" edge="1">
          <mxGeometry width="50" height="50" relative="1" as="geometry">
            <mxPoint x="460" y="330" as="sourcePoint" />
            <mxPoint x="510" y="280" as="targetPoint" />
            <Array as="points">
              <mxPoint x="490" y="370" />
            </Array>
          </mxGeometry>
        </mxCell>
        <mxCell id="44zXDO8Drx6OMzfm2gsY-36" value="confirmSubmission()" style="edgeLabel;html=1;align=center;verticalAlign=middle;resizable=0;points=[];labelBackgroundColor=none;" parent="44zXDO8Drx6OMzfm2gsY-35" vertex="1" connectable="0">
          <mxGeometry x="-0.1301" y="-1" relative="1" as="geometry">
            <mxPoint x="-18" y="-9" as="offset" />
          </mxGeometry>
        </mxCell>
        <mxCell id="jnT09mWjpSllmfHxPQbR-1" value="" style="endArrow=classic;html=1;rounded=0;fontColor=default;labelBackgroundColor=none;" parent="1" source="44zXDO8Drx6OMzfm2gsY-1" target="44zXDO8Drx6OMzfm2gsY-3" edge="1">
          <mxGeometry width="50" height="50" relative="1" as="geometry">
            <mxPoint x="460" y="330" as="sourcePoint" />
            <mxPoint x="510" y="280" as="targetPoint" />
            <Array as="points">
              <mxPoint x="290" y="400" />
            </Array>
          </mxGeometry>
        </mxCell>
        <mxCell id="jnT09mWjpSllmfHxPQbR-2" value="confirmAcceptance()" style="edgeLabel;html=1;align=center;verticalAlign=middle;resizable=0;points=[];labelBackgroundColor=none;" parent="jnT09mWjpSllmfHxPQbR-1" vertex="1" connectable="0">
          <mxGeometry x="-0.3123" y="2" relative="1" as="geometry">
            <mxPoint x="-31" y="-12" as="offset" />
          </mxGeometry>
        </mxCell>
      </root>
    </mxGraphModel>
  </diagram>
  <diagram id="my0nbMpWELb7pKtTh8wX" name="Page-4">
    <mxGraphModel dx="1079" dy="735" grid="1" gridSize="10" guides="1" tooltips="1" connect="1" arrows="1" fold="1" page="1" pageScale="1" pageWidth="850" pageHeight="1100" math="0" shadow="0">
      <root>
        <mxCell id="0" />
        <mxCell id="1" parent="0" />
        <mxCell id="sPYLUmIOet5mdrFY5rRz-6" value="&lt;font face=&quot;Vazirmatn&quot;&gt;ثبت وضعیت زمان و پیشرفت درخواست&lt;/font&gt;" style="swimlane;whiteSpace=wrap;html=1;labelBackgroundColor=none;" parent="1" vertex="1">
          <mxGeometry x="150" y="40" width="550" height="500" as="geometry" />
        </mxCell>
        <mxCell id="sPYLUmIOet5mdrFY5rRz-21" value="Admin" style="shape=umlLifeline;perimeter=lifelinePerimeter;whiteSpace=wrap;html=1;container=1;dropTarget=0;collapsible=0;recursiveResize=0;outlineConnect=0;portConstraint=eastwest;newEdgeStyle={&quot;curved&quot;:0,&quot;rounded&quot;:0};participant=umlActor;labelBackgroundColor=none;size=40;" parent="sPYLUmIOet5mdrFY5rRz-6" vertex="1">
          <mxGeometry x="200" y="60" width="20" height="420" as="geometry" />
        </mxCell>
        <mxCell id="vCs6zjhbWw7HfOYZ893q-4" value="" style="html=1;points=[[0,0,0,0,5],[0,1,0,0,-5],[1,0,0,0,5],[1,1,0,0,-5]];perimeter=orthogonalPerimeter;outlineConnect=0;targetShapes=umlLifeline;portConstraint=eastwest;newEdgeStyle={&quot;curved&quot;:0,&quot;rounded&quot;:0};labelBackgroundColor=none;" parent="sPYLUmIOet5mdrFY5rRz-21" vertex="1">
          <mxGeometry x="5" y="260" width="10" height="100" as="geometry" />
        </mxCell>
        <mxCell id="sPYLUmIOet5mdrFY5rRz-3" value="Driver" style="shape=umlLifeline;perimeter=lifelinePerimeter;whiteSpace=wrap;html=1;container=1;dropTarget=0;collapsible=0;recursiveResize=0;outlineConnect=0;portConstraint=eastwest;newEdgeStyle={&quot;curved&quot;:0,&quot;rounded&quot;:0};participant=umlActor;labelBackgroundColor=none;size=40;" parent="sPYLUmIOet5mdrFY5rRz-6" vertex="1">
          <mxGeometry x="120" y="60" width="20" height="420" as="geometry" />
        </mxCell>
        <mxCell id="vCs6zjhbWw7HfOYZ893q-1" value="" style="html=1;points=[[0,0,0,0,5],[0,1,0,0,-5],[1,0,0,0,5],[1,1,0,0,-5]];perimeter=orthogonalPerimeter;outlineConnect=0;targetShapes=umlLifeline;portConstraint=eastwest;newEdgeStyle={&quot;curved&quot;:0,&quot;rounded&quot;:0};labelBackgroundColor=none;" parent="sPYLUmIOet5mdrFY5rRz-3" vertex="1">
          <mxGeometry x="5" y="105" width="10" height="125" as="geometry" />
        </mxCell>
        <mxCell id="sPYLUmIOet5mdrFY5rRz-1" value="&lt;div&gt;System&lt;/div&gt;&lt;div&gt;Manager&lt;br&gt;&lt;/div&gt;" style="shape=umlLifeline;perimeter=lifelinePerimeter;whiteSpace=wrap;html=1;container=1;dropTarget=0;collapsible=0;recursiveResize=0;outlineConnect=0;portConstraint=eastwest;newEdgeStyle={&quot;edgeStyle&quot;:&quot;elbowEdgeStyle&quot;,&quot;elbow&quot;:&quot;vertical&quot;,&quot;curved&quot;:0,&quot;rounded&quot;:0};labelBackgroundColor=none;" parent="sPYLUmIOet5mdrFY5rRz-6" vertex="1">
          <mxGeometry x="260" y="60" width="100" height="420" as="geometry" />
        </mxCell>
        <mxCell id="vCs6zjhbWw7HfOYZ893q-2" value="" style="html=1;points=[[0,0,0,0,5],[0,1,0,0,-5],[1,0,0,0,5],[1,1,0,0,-5]];perimeter=orthogonalPerimeter;outlineConnect=0;targetShapes=umlLifeline;portConstraint=eastwest;newEdgeStyle={&quot;curved&quot;:0,&quot;rounded&quot;:0};labelBackgroundColor=none;" parent="sPYLUmIOet5mdrFY5rRz-1" vertex="1">
          <mxGeometry x="45" y="105" width="10" height="125" as="geometry" />
        </mxCell>
        <mxCell id="vCs6zjhbWw7HfOYZ893q-5" value="" style="html=1;points=[[0,0,0,0,5],[0,1,0,0,-5],[1,0,0,0,5],[1,1,0,0,-5]];perimeter=orthogonalPerimeter;outlineConnect=0;targetShapes=umlLifeline;portConstraint=eastwest;newEdgeStyle={&quot;curved&quot;:0,&quot;rounded&quot;:0};labelBackgroundColor=none;" parent="sPYLUmIOet5mdrFY5rRz-1" vertex="1">
          <mxGeometry x="45" y="250" width="10" height="110" as="geometry" />
        </mxCell>
        <mxCell id="sPYLUmIOet5mdrFY5rRz-4" value="&lt;div&gt;Data&lt;/div&gt;&lt;div&gt;Handler&lt;br&gt;&lt;/div&gt;" style="shape=umlLifeline;perimeter=lifelinePerimeter;whiteSpace=wrap;html=1;container=1;dropTarget=0;collapsible=0;recursiveResize=0;outlineConnect=0;portConstraint=eastwest;newEdgeStyle={&quot;edgeStyle&quot;:&quot;elbowEdgeStyle&quot;,&quot;elbow&quot;:&quot;vertical&quot;,&quot;curved&quot;:0,&quot;rounded&quot;:0};labelBackgroundColor=none;" parent="sPYLUmIOet5mdrFY5rRz-6" vertex="1">
          <mxGeometry x="390" y="60" width="100" height="420" as="geometry" />
        </mxCell>
        <mxCell id="vCs6zjhbWw7HfOYZ893q-3" value="" style="html=1;points=[[0,0,0,0,5],[0,1,0,0,-5],[1,0,0,0,5],[1,1,0,0,-5]];perimeter=orthogonalPerimeter;outlineConnect=0;targetShapes=umlLifeline;portConstraint=eastwest;newEdgeStyle={&quot;curved&quot;:0,&quot;rounded&quot;:0};labelBackgroundColor=none;" parent="sPYLUmIOet5mdrFY5rRz-4" vertex="1">
          <mxGeometry x="45" y="180" width="10" height="40" as="geometry" />
        </mxCell>
        <mxCell id="vCs6zjhbWw7HfOYZ893q-6" value="" style="html=1;points=[[0,0,0,0,5],[0,1,0,0,-5],[1,0,0,0,5],[1,1,0,0,-5]];perimeter=orthogonalPerimeter;outlineConnect=0;targetShapes=umlLifeline;portConstraint=eastwest;newEdgeStyle={&quot;curved&quot;:0,&quot;rounded&quot;:0};labelBackgroundColor=none;" parent="sPYLUmIOet5mdrFY5rRz-4" vertex="1">
          <mxGeometry x="45" y="320" width="10" height="40" as="geometry" />
        </mxCell>
        <mxCell id="sPYLUmIOet5mdrFY5rRz-23" value="alt" style="shape=umlFrame;whiteSpace=wrap;html=1;pointerEvents=0;labelBackgroundColor=none;" parent="sPYLUmIOet5mdrFY5rRz-6" vertex="1">
          <mxGeometry x="20" y="150" width="500" height="280" as="geometry" />
        </mxCell>
        <mxCell id="sPYLUmIOet5mdrFY5rRz-24" value="" style="endArrow=none;html=1;rounded=0;exitX=-0.001;exitY=0.55;exitDx=0;exitDy=0;exitPerimeter=0;entryX=1.001;entryY=0.547;entryDx=0;entryDy=0;entryPerimeter=0;labelBackgroundColor=none;fontColor=default;" parent="sPYLUmIOet5mdrFY5rRz-6" source="sPYLUmIOet5mdrFY5rRz-23" target="sPYLUmIOet5mdrFY5rRz-23" edge="1">
          <mxGeometry width="50" height="50" relative="1" as="geometry">
            <mxPoint x="260" y="210" as="sourcePoint" />
            <mxPoint x="310" y="160" as="targetPoint" />
          </mxGeometry>
        </mxCell>
        <mxCell id="sZSQm2ASWmaaHAcDTf4s-1" value="" style="endArrow=classic;html=1;rounded=0;fontColor=default;labelBackgroundColor=none;" parent="sPYLUmIOet5mdrFY5rRz-6" edge="1">
          <mxGeometry width="50" height="50" relative="1" as="geometry">
            <mxPoint x="129.92857142857144" y="170" as="sourcePoint" />
            <mxPoint x="309.5" y="170" as="targetPoint" />
          </mxGeometry>
        </mxCell>
        <mxCell id="sZSQm2ASWmaaHAcDTf4s-2" value="acceptRequest(requestID)" style="edgeLabel;html=1;align=center;verticalAlign=middle;resizable=0;points=[];labelBackgroundColor=none;" parent="sZSQm2ASWmaaHAcDTf4s-1" vertex="1" connectable="0">
          <mxGeometry x="0.1559" y="2" relative="1" as="geometry">
            <mxPoint x="-14" y="-8" as="offset" />
          </mxGeometry>
        </mxCell>
        <mxCell id="sZSQm2ASWmaaHAcDTf4s-4" value="" style="endArrow=classic;html=1;rounded=0;fontColor=default;labelBackgroundColor=none;" parent="sPYLUmIOet5mdrFY5rRz-6" source="sPYLUmIOet5mdrFY5rRz-1" target="sPYLUmIOet5mdrFY5rRz-1" edge="1">
          <mxGeometry width="50" height="50" relative="1" as="geometry">
            <mxPoint x="250" y="250" as="sourcePoint" />
            <mxPoint x="300" y="200" as="targetPoint" />
            <Array as="points">
              <mxPoint x="340" y="190" />
              <mxPoint x="340" y="200" />
              <mxPoint x="340" y="210" />
            </Array>
          </mxGeometry>
        </mxCell>
        <mxCell id="sZSQm2ASWmaaHAcDTf4s-5" value="validateRequest(requestID)" style="edgeLabel;html=1;align=center;verticalAlign=middle;resizable=0;points=[];labelBackgroundColor=none;" parent="sZSQm2ASWmaaHAcDTf4s-4" vertex="1" connectable="0">
          <mxGeometry x="-0.0392" relative="1" as="geometry">
            <mxPoint x="-35" as="offset" />
          </mxGeometry>
        </mxCell>
        <mxCell id="sZSQm2ASWmaaHAcDTf4s-6" value="" style="endArrow=classic;html=1;rounded=0;fontColor=default;labelBackgroundColor=none;" parent="sPYLUmIOet5mdrFY5rRz-6" source="sPYLUmIOet5mdrFY5rRz-1" target="sPYLUmIOet5mdrFY5rRz-1" edge="1">
          <mxGeometry width="50" height="50" relative="1" as="geometry">
            <mxPoint x="250" y="170" as="sourcePoint" />
            <mxPoint x="300" y="120" as="targetPoint" />
            <Array as="points">
              <mxPoint x="330" y="220" />
              <mxPoint x="340" y="220" />
              <mxPoint x="340" y="240" />
              <mxPoint x="330" y="240" />
            </Array>
          </mxGeometry>
        </mxCell>
        <mxCell id="sZSQm2ASWmaaHAcDTf4s-7" value="&lt;font style=&quot;font-size: 7px;&quot;&gt;&lt;font&gt;updateRequestStatus(requestID, &quot;Accepted&quot;)&lt;/font&gt;&lt;font&gt;&lt;br&gt;&lt;/font&gt;&lt;/font&gt;" style="edgeLabel;html=1;align=center;verticalAlign=middle;resizable=0;points=[];labelBackgroundColor=none;" parent="sZSQm2ASWmaaHAcDTf4s-6" vertex="1" connectable="0">
          <mxGeometry x="-0.0178" y="-1" relative="1" as="geometry">
            <mxPoint as="offset" />
          </mxGeometry>
        </mxCell>
        <mxCell id="sZSQm2ASWmaaHAcDTf4s-8" value="" style="endArrow=classic;html=1;rounded=0;fontColor=default;labelBackgroundColor=none;" parent="sPYLUmIOet5mdrFY5rRz-6" edge="1">
          <mxGeometry width="50" height="50" relative="1" as="geometry">
            <mxPoint x="310.00034482758605" y="259.9999999999999" as="sourcePoint" />
            <mxPoint x="439.69" y="259.9999999999999" as="targetPoint" />
            <Array as="points">
              <mxPoint x="410.19" y="260" />
            </Array>
          </mxGeometry>
        </mxCell>
        <mxCell id="sZSQm2ASWmaaHAcDTf4s-9" value="saveData(request)" style="edgeLabel;html=1;align=center;verticalAlign=middle;resizable=0;points=[];labelBackgroundColor=none;" parent="sZSQm2ASWmaaHAcDTf4s-8" vertex="1" connectable="0">
          <mxGeometry x="0.2167" y="2" relative="1" as="geometry">
            <mxPoint x="-14" y="-8" as="offset" />
          </mxGeometry>
        </mxCell>
        <mxCell id="sZSQm2ASWmaaHAcDTf4s-10" value="" style="endArrow=classic;html=1;rounded=0;fontColor=default;labelBackgroundColor=none;" parent="sPYLUmIOet5mdrFY5rRz-6" edge="1">
          <mxGeometry width="50" height="50" relative="1" as="geometry">
            <mxPoint x="309.5" y="280.0000000000001" as="sourcePoint" />
            <mxPoint x="129.81034482758616" y="280.0000000000001" as="targetPoint" />
          </mxGeometry>
        </mxCell>
        <mxCell id="sZSQm2ASWmaaHAcDTf4s-11" value="confirmAcceptance()" style="edgeLabel;html=1;align=center;verticalAlign=middle;resizable=0;points=[];labelBackgroundColor=none;" parent="sZSQm2ASWmaaHAcDTf4s-10" vertex="1" connectable="0">
          <mxGeometry x="-0.456" y="1" relative="1" as="geometry">
            <mxPoint x="-41" y="-11" as="offset" />
          </mxGeometry>
        </mxCell>
        <mxCell id="sPYLUmIOet5mdrFY5rRz-25" value="[Actor = Driver]" style="text;html=1;align=center;verticalAlign=middle;resizable=0;points=[];autosize=1;strokeColor=none;fillColor=none;labelBackgroundColor=none;" parent="sPYLUmIOet5mdrFY5rRz-6" vertex="1">
          <mxGeometry x="20" y="190" width="100" height="30" as="geometry" />
        </mxCell>
        <mxCell id="sZSQm2ASWmaaHAcDTf4s-12" value="[Actor = Admin]" style="text;html=1;align=center;verticalAlign=middle;resizable=0;points=[];autosize=1;strokeColor=none;fillColor=none;labelBackgroundColor=none;" parent="sPYLUmIOet5mdrFY5rRz-6" vertex="1">
          <mxGeometry x="15" y="310" width="110" height="30" as="geometry" />
        </mxCell>
        <mxCell id="sZSQm2ASWmaaHAcDTf4s-13" value="" style="endArrow=classic;html=1;rounded=0;fontColor=default;labelBackgroundColor=none;" parent="sPYLUmIOet5mdrFY5rRz-6" edge="1">
          <mxGeometry width="50" height="50" relative="1" as="geometry">
            <mxPoint x="209.81034482758605" y="330.00000000000006" as="sourcePoint" />
            <mxPoint x="309.5" y="330.00000000000006" as="targetPoint" />
          </mxGeometry>
        </mxCell>
        <mxCell id="sZSQm2ASWmaaHAcDTf4s-14" value="&lt;font&gt;updateRequestDetails(requestID, newDetails)&lt;/font&gt;" style="edgeLabel;html=1;align=center;verticalAlign=middle;resizable=0;points=[];fontSize=9;labelBackgroundColor=none;" parent="sZSQm2ASWmaaHAcDTf4s-13" vertex="1" connectable="0">
          <mxGeometry x="-0.2297" y="2" relative="1" as="geometry">
            <mxPoint x="-18" y="-13" as="offset" />
          </mxGeometry>
        </mxCell>
        <mxCell id="sZSQm2ASWmaaHAcDTf4s-38" value="" style="endArrow=classic;html=1;rounded=0;fontColor=default;labelBackgroundColor=none;" parent="sPYLUmIOet5mdrFY5rRz-6" edge="1">
          <mxGeometry width="50" height="50" relative="1" as="geometry">
            <mxPoint x="310" y="340" as="sourcePoint" />
            <mxPoint x="309.81034482758605" y="359.9999999999999" as="targetPoint" />
            <Array as="points">
              <mxPoint x="360" y="340" />
              <mxPoint x="360" y="360" />
              <mxPoint x="330" y="360" />
            </Array>
          </mxGeometry>
        </mxCell>
        <mxCell id="sZSQm2ASWmaaHAcDTf4s-39" value="validateDetails(newDetails)" style="edgeLabel;html=1;align=center;verticalAlign=middle;resizable=0;points=[];labelBackgroundColor=none;" parent="sZSQm2ASWmaaHAcDTf4s-38" vertex="1" connectable="0">
          <mxGeometry x="-0.0349" y="1" relative="1" as="geometry">
            <mxPoint x="-1" y="2" as="offset" />
          </mxGeometry>
        </mxCell>
        <mxCell id="sZSQm2ASWmaaHAcDTf4s-40" value="" style="endArrow=classic;html=1;rounded=0;fontColor=default;labelBackgroundColor=none;" parent="sPYLUmIOet5mdrFY5rRz-6" edge="1">
          <mxGeometry width="50" height="50" relative="1" as="geometry">
            <mxPoint x="310" y="370" as="sourcePoint" />
            <mxPoint x="309.81034482758605" y="389.9999999999999" as="targetPoint" />
            <Array as="points">
              <mxPoint x="360" y="370" />
              <mxPoint x="360" y="390" />
              <mxPoint x="330" y="390" />
            </Array>
          </mxGeometry>
        </mxCell>
        <mxCell id="sZSQm2ASWmaaHAcDTf4s-41" value="&lt;font style=&quot;font-size: 9px;&quot;&gt;applyRequestUpdates(requestID, newDetails)&lt;/font&gt;" style="edgeLabel;html=1;align=center;verticalAlign=middle;resizable=0;points=[];labelBackgroundColor=none;" parent="sZSQm2ASWmaaHAcDTf4s-40" vertex="1" connectable="0">
          <mxGeometry x="-0.0349" y="1" relative="1" as="geometry">
            <mxPoint x="-1" y="2" as="offset" />
          </mxGeometry>
        </mxCell>
        <mxCell id="sZSQm2ASWmaaHAcDTf4s-42" value="" style="endArrow=classic;html=1;rounded=0;fontColor=default;labelBackgroundColor=none;" parent="sPYLUmIOet5mdrFY5rRz-6" source="sPYLUmIOet5mdrFY5rRz-1" target="sPYLUmIOet5mdrFY5rRz-4" edge="1">
          <mxGeometry width="50" height="50" relative="1" as="geometry">
            <mxPoint x="170" y="300" as="sourcePoint" />
            <mxPoint x="220" y="250" as="targetPoint" />
            <Array as="points">
              <mxPoint x="360" y="400" />
            </Array>
          </mxGeometry>
        </mxCell>
        <mxCell id="sZSQm2ASWmaaHAcDTf4s-43" value="saveData(request)" style="edgeLabel;html=1;align=center;verticalAlign=middle;resizable=0;points=[];labelBackgroundColor=none;" parent="sZSQm2ASWmaaHAcDTf4s-42" vertex="1" connectable="0">
          <mxGeometry x="0.1239" relative="1" as="geometry">
            <mxPoint x="-8" y="10" as="offset" />
          </mxGeometry>
        </mxCell>
        <mxCell id="sZSQm2ASWmaaHAcDTf4s-44" value="" style="endArrow=classic;html=1;rounded=0;fontColor=default;labelBackgroundColor=none;" parent="sPYLUmIOet5mdrFY5rRz-6" source="sPYLUmIOet5mdrFY5rRz-1" target="sPYLUmIOet5mdrFY5rRz-21" edge="1">
          <mxGeometry width="50" height="50" relative="1" as="geometry">
            <mxPoint x="170" y="300" as="sourcePoint" />
            <mxPoint x="220" y="250" as="targetPoint" />
            <Array as="points">
              <mxPoint x="250" y="410" />
            </Array>
          </mxGeometry>
        </mxCell>
        <mxCell id="sZSQm2ASWmaaHAcDTf4s-45" value="confirmUpdate()" style="edgeLabel;html=1;align=center;verticalAlign=middle;resizable=0;points=[];labelBackgroundColor=none;" parent="sZSQm2ASWmaaHAcDTf4s-44" vertex="1" connectable="0">
          <mxGeometry x="-0.2546" y="-1" relative="1" as="geometry">
            <mxPoint x="-12" y="-9" as="offset" />
          </mxGeometry>
        </mxCell>
      </root>
    </mxGraphModel>
  </diagram>
  <diagram id="jPB5uIDT-bzVPJb3Opxs" name="Page-5">
    <mxGraphModel dx="1079" dy="735" grid="1" gridSize="10" guides="1" tooltips="1" connect="1" arrows="1" fold="1" page="1" pageScale="1" pageWidth="850" pageHeight="1100" math="0" shadow="0">
      <root>
        <mxCell id="0" />
        <mxCell id="1" parent="0" />
        <mxCell id="lUX9dpr7M5-q6VSUVDSl-1" value="&lt;div&gt;System&lt;/div&gt;&lt;div&gt;Manager&lt;br&gt;&lt;/div&gt;" style="shape=umlLifeline;perimeter=lifelinePerimeter;whiteSpace=wrap;html=1;container=1;dropTarget=0;collapsible=0;recursiveResize=0;outlineConnect=0;portConstraint=eastwest;newEdgeStyle={&quot;edgeStyle&quot;:&quot;elbowEdgeStyle&quot;,&quot;elbow&quot;:&quot;vertical&quot;,&quot;curved&quot;:0,&quot;rounded&quot;:0};labelBackgroundColor=none;" parent="1" vertex="1">
          <mxGeometry x="340" y="140" width="100" height="330" as="geometry" />
        </mxCell>
        <mxCell id="Gh14Hi7k4xR26xQU-wWk-9" value="" style="html=1;points=[[0,0,0,0,5],[0,1,0,0,-5],[1,0,0,0,5],[1,1,0,0,-5]];perimeter=orthogonalPerimeter;outlineConnect=0;targetShapes=umlLifeline;portConstraint=eastwest;newEdgeStyle={&quot;curved&quot;:0,&quot;rounded&quot;:0};labelBackgroundColor=none;" parent="lUX9dpr7M5-q6VSUVDSl-1" vertex="1">
          <mxGeometry x="45" y="70" width="10" height="170" as="geometry" />
        </mxCell>
        <mxCell id="lUX9dpr7M5-q6VSUVDSl-3" value="Admin" style="shape=umlLifeline;perimeter=lifelinePerimeter;whiteSpace=wrap;html=1;container=1;dropTarget=0;collapsible=0;recursiveResize=0;outlineConnect=0;portConstraint=eastwest;newEdgeStyle={&quot;curved&quot;:0,&quot;rounded&quot;:0};participant=umlActor;labelBackgroundColor=none;size=40;" parent="1" vertex="1">
          <mxGeometry x="210" y="140" width="20" height="330" as="geometry" />
        </mxCell>
        <mxCell id="Gh14Hi7k4xR26xQU-wWk-10" value="" style="html=1;points=[[0,0,0,0,5],[0,1,0,0,-5],[1,0,0,0,5],[1,1,0,0,-5]];perimeter=orthogonalPerimeter;outlineConnect=0;targetShapes=umlLifeline;portConstraint=eastwest;newEdgeStyle={&quot;curved&quot;:0,&quot;rounded&quot;:0};labelBackgroundColor=none;" parent="lUX9dpr7M5-q6VSUVDSl-3" vertex="1">
          <mxGeometry x="5" y="60" width="10" height="180" as="geometry" />
        </mxCell>
        <mxCell id="lUX9dpr7M5-q6VSUVDSl-6" value="&lt;font face=&quot;Vazirmatn&quot;&gt;جستجو در لیست درخواست‌ها&lt;/font&gt;" style="swimlane;whiteSpace=wrap;html=1;labelBackgroundColor=none;" parent="1" vertex="1">
          <mxGeometry x="170" y="60" width="510" height="430" as="geometry" />
        </mxCell>
        <mxCell id="lUX9dpr7M5-q6VSUVDSl-4" value="&lt;div&gt;Data&lt;/div&gt;&lt;div&gt;Handler&lt;br&gt;&lt;/div&gt;" style="shape=umlLifeline;perimeter=lifelinePerimeter;whiteSpace=wrap;html=1;container=1;dropTarget=0;collapsible=0;recursiveResize=0;outlineConnect=0;portConstraint=eastwest;newEdgeStyle={&quot;edgeStyle&quot;:&quot;elbowEdgeStyle&quot;,&quot;elbow&quot;:&quot;vertical&quot;,&quot;curved&quot;:0,&quot;rounded&quot;:0};labelBackgroundColor=none;" parent="lUX9dpr7M5-q6VSUVDSl-6" vertex="1">
          <mxGeometry x="380" y="80" width="100" height="330" as="geometry" />
        </mxCell>
        <mxCell id="Gh14Hi7k4xR26xQU-wWk-11" value="" style="html=1;points=[[0,0,0,0,5],[0,1,0,0,-5],[1,0,0,0,5],[1,1,0,0,-5]];perimeter=orthogonalPerimeter;outlineConnect=0;targetShapes=umlLifeline;portConstraint=eastwest;newEdgeStyle={&quot;curved&quot;:0,&quot;rounded&quot;:0};labelBackgroundColor=none;" parent="lUX9dpr7M5-q6VSUVDSl-4" vertex="1">
          <mxGeometry x="45" y="100" width="10" height="100" as="geometry" />
        </mxCell>
        <mxCell id="Gh14Hi7k4xR26xQU-wWk-5" value="" style="endArrow=classic;html=1;rounded=0;fontColor=default;labelBackgroundColor=none;" parent="lUX9dpr7M5-q6VSUVDSl-6" edge="1">
          <mxGeometry width="50" height="50" relative="1" as="geometry">
            <mxPoint x="429.5" y="259.9999999999999" as="sourcePoint" />
            <mxPoint x="219.66666666666652" y="259.9999999999999" as="targetPoint" />
          </mxGeometry>
        </mxCell>
        <mxCell id="Gh14Hi7k4xR26xQU-wWk-6" value="returnMatchingRequests(requestList)" style="edgeLabel;html=1;align=center;verticalAlign=middle;resizable=0;points=[];labelBackgroundColor=none;" parent="Gh14Hi7k4xR26xQU-wWk-5" vertex="1" connectable="0">
          <mxGeometry x="-0.3185" y="2" relative="1" as="geometry">
            <mxPoint x="-28" y="-17" as="offset" />
          </mxGeometry>
        </mxCell>
        <mxCell id="Gh14Hi7k4xR26xQU-wWk-3" value="" style="endArrow=classic;html=1;rounded=0;fontColor=default;labelBackgroundColor=none;" parent="lUX9dpr7M5-q6VSUVDSl-6" edge="1">
          <mxGeometry width="50" height="50" relative="1" as="geometry">
            <mxPoint x="219.66666666666652" y="200.0000000000001" as="sourcePoint" />
            <mxPoint x="429.5" y="200.0000000000001" as="targetPoint" />
            <Array as="points">
              <mxPoint x="320" y="200" />
            </Array>
          </mxGeometry>
        </mxCell>
        <mxCell id="Gh14Hi7k4xR26xQU-wWk-4" value="fetchRequests(searchCriteria)" style="edgeLabel;html=1;align=center;verticalAlign=middle;resizable=0;points=[];labelBackgroundColor=none;" parent="Gh14Hi7k4xR26xQU-wWk-3" vertex="1" connectable="0">
          <mxGeometry x="-0.1581" y="1" relative="1" as="geometry">
            <mxPoint x="12" y="-9" as="offset" />
          </mxGeometry>
        </mxCell>
        <mxCell id="Gh14Hi7k4xR26xQU-wWk-1" value="" style="endArrow=classic;html=1;rounded=0;fontColor=default;labelBackgroundColor=none;" parent="1" source="lUX9dpr7M5-q6VSUVDSl-3" target="lUX9dpr7M5-q6VSUVDSl-1" edge="1">
          <mxGeometry width="50" height="50" relative="1" as="geometry">
            <mxPoint x="360" y="300" as="sourcePoint" />
            <mxPoint x="410" y="250" as="targetPoint" />
            <Array as="points">
              <mxPoint x="310" y="220" />
            </Array>
          </mxGeometry>
        </mxCell>
        <mxCell id="Gh14Hi7k4xR26xQU-wWk-2" value="searchInRequests(searchCriteria)" style="edgeLabel;html=1;align=center;verticalAlign=middle;resizable=0;points=[];labelBackgroundColor=none;" parent="Gh14Hi7k4xR26xQU-wWk-1" vertex="1" connectable="0">
          <mxGeometry x="-0.264" relative="1" as="geometry">
            <mxPoint x="8" y="-10" as="offset" />
          </mxGeometry>
        </mxCell>
        <mxCell id="Gh14Hi7k4xR26xQU-wWk-7" value="" style="endArrow=classic;html=1;rounded=0;fontColor=default;labelBackgroundColor=none;" parent="1" source="lUX9dpr7M5-q6VSUVDSl-1" target="lUX9dpr7M5-q6VSUVDSl-3" edge="1">
          <mxGeometry width="50" height="50" relative="1" as="geometry">
            <mxPoint x="360" y="300" as="sourcePoint" />
            <mxPoint x="410" y="250" as="targetPoint" />
            <Array as="points">
              <mxPoint x="300" y="370" />
            </Array>
          </mxGeometry>
        </mxCell>
        <mxCell id="Gh14Hi7k4xR26xQU-wWk-8" value="displayRequestList(requestList)" style="edgeLabel;html=1;align=center;verticalAlign=middle;resizable=0;points=[];labelBackgroundColor=none;" parent="Gh14Hi7k4xR26xQU-wWk-7" vertex="1" connectable="0">
          <mxGeometry x="-0.4818" relative="1" as="geometry">
            <mxPoint x="-35" y="-10" as="offset" />
          </mxGeometry>
        </mxCell>
      </root>
    </mxGraphModel>
  </diagram>
  <diagram id="rhQlIDkD6wvAZ81NYaOv" name="Page-6">
    <mxGraphModel dx="1079" dy="735" grid="1" gridSize="10" guides="1" tooltips="1" connect="1" arrows="1" fold="1" page="1" pageScale="1" pageWidth="850" pageHeight="1100" math="0" shadow="0">
      <root>
        <mxCell id="0" />
        <mxCell id="1" parent="0" />
        <mxCell id="nOfO4PisgZc-cv4oISs9-1" value="&lt;div&gt;System&lt;/div&gt;&lt;div&gt;Manager&lt;br&gt;&lt;/div&gt;" style="shape=umlLifeline;perimeter=lifelinePerimeter;whiteSpace=wrap;html=1;container=1;dropTarget=0;collapsible=0;recursiveResize=0;outlineConnect=0;portConstraint=eastwest;newEdgeStyle={&quot;edgeStyle&quot;:&quot;elbowEdgeStyle&quot;,&quot;elbow&quot;:&quot;vertical&quot;,&quot;curved&quot;:0,&quot;rounded&quot;:0};labelBackgroundColor=none;" parent="1" vertex="1">
          <mxGeometry x="340" y="140" width="100" height="330" as="geometry" />
        </mxCell>
        <mxCell id="ttBcZbPd9vu58WAIXtFk-10" value="" style="html=1;points=[[0,0,0,0,5],[0,1,0,0,-5],[1,0,0,0,5],[1,1,0,0,-5]];perimeter=orthogonalPerimeter;outlineConnect=0;targetShapes=umlLifeline;portConstraint=eastwest;newEdgeStyle={&quot;curved&quot;:0,&quot;rounded&quot;:0};labelBackgroundColor=none;" parent="nOfO4PisgZc-cv4oISs9-1" vertex="1">
          <mxGeometry x="45" y="60" width="10" height="210" as="geometry" />
        </mxCell>
        <mxCell id="nOfO4PisgZc-cv4oISs9-3" value="Admin" style="shape=umlLifeline;perimeter=lifelinePerimeter;whiteSpace=wrap;html=1;container=1;dropTarget=0;collapsible=0;recursiveResize=0;outlineConnect=0;portConstraint=eastwest;newEdgeStyle={&quot;curved&quot;:0,&quot;rounded&quot;:0};participant=umlActor;labelBackgroundColor=none;size=40;" parent="1" vertex="1">
          <mxGeometry x="210" y="140" width="20" height="330" as="geometry" />
        </mxCell>
        <mxCell id="ttBcZbPd9vu58WAIXtFk-9" value="" style="html=1;points=[[0,0,0,0,5],[0,1,0,0,-5],[1,0,0,0,5],[1,1,0,0,-5]];perimeter=orthogonalPerimeter;outlineConnect=0;targetShapes=umlLifeline;portConstraint=eastwest;newEdgeStyle={&quot;curved&quot;:0,&quot;rounded&quot;:0};labelBackgroundColor=none;" parent="nOfO4PisgZc-cv4oISs9-3" vertex="1">
          <mxGeometry x="5" y="60" width="10" height="210" as="geometry" />
        </mxCell>
        <mxCell id="nOfO4PisgZc-cv4oISs9-5" value="&lt;font face=&quot;Vazirmatn&quot;&gt;حذف یک درخواست&lt;/font&gt;" style="swimlane;whiteSpace=wrap;html=1;labelBackgroundColor=none;" parent="1" vertex="1">
          <mxGeometry x="170" y="70" width="510" height="420" as="geometry" />
        </mxCell>
        <mxCell id="nOfO4PisgZc-cv4oISs9-6" value="&lt;div&gt;Data&lt;/div&gt;&lt;div&gt;Handler&lt;br&gt;&lt;/div&gt;" style="shape=umlLifeline;perimeter=lifelinePerimeter;whiteSpace=wrap;html=1;container=1;dropTarget=0;collapsible=0;recursiveResize=0;outlineConnect=0;portConstraint=eastwest;newEdgeStyle={&quot;edgeStyle&quot;:&quot;elbowEdgeStyle&quot;,&quot;elbow&quot;:&quot;vertical&quot;,&quot;curved&quot;:0,&quot;rounded&quot;:0};labelBackgroundColor=none;" parent="nOfO4PisgZc-cv4oISs9-5" vertex="1">
          <mxGeometry x="380" y="80" width="100" height="330" as="geometry" />
        </mxCell>
        <mxCell id="ttBcZbPd9vu58WAIXtFk-11" value="" style="html=1;points=[[0,0,0,0,5],[0,1,0,0,-5],[1,0,0,0,5],[1,1,0,0,-5]];perimeter=orthogonalPerimeter;outlineConnect=0;targetShapes=umlLifeline;portConstraint=eastwest;newEdgeStyle={&quot;curved&quot;:0,&quot;rounded&quot;:0};labelBackgroundColor=none;" parent="nOfO4PisgZc-cv4oISs9-6" vertex="1">
          <mxGeometry x="45" y="150" width="10" height="60" as="geometry" />
        </mxCell>
        <mxCell id="ttBcZbPd9vu58WAIXtFk-4" value="" style="endArrow=classic;html=1;rounded=0;fontColor=default;labelBackgroundColor=none;" parent="nOfO4PisgZc-cv4oISs9-5" edge="1">
          <mxGeometry width="50" height="50" relative="1" as="geometry">
            <mxPoint x="219.81034482758605" y="244.66000000000014" as="sourcePoint" />
            <mxPoint x="429.5" y="244.66000000000014" as="targetPoint" />
          </mxGeometry>
        </mxCell>
        <mxCell id="ttBcZbPd9vu58WAIXtFk-5" value="deleteRequest(requestID)" style="edgeLabel;html=1;align=center;verticalAlign=middle;resizable=0;points=[];labelBackgroundColor=none;" parent="ttBcZbPd9vu58WAIXtFk-4" vertex="1" connectable="0">
          <mxGeometry x="-0.1963" y="-3" relative="1" as="geometry">
            <mxPoint x="16" y="-18" as="offset" />
          </mxGeometry>
        </mxCell>
        <mxCell id="ttBcZbPd9vu58WAIXtFk-8" value="confirmRequestRemoval(success)" style="endArrow=classic;html=1;rounded=0;fontColor=default;labelBackgroundColor=none;" parent="nOfO4PisgZc-cv4oISs9-5" edge="1">
          <mxGeometry x="-0.063" y="-10" width="50" height="50" relative="1" as="geometry">
            <mxPoint x="219.5" y="330.0000000000001" as="sourcePoint" />
            <mxPoint x="49.81034482758605" y="330.0000000000001" as="targetPoint" />
            <Array as="points" />
            <mxPoint as="offset" />
          </mxGeometry>
        </mxCell>
        <mxCell id="nOfO4PisgZc-cv4oISs9-12" value="" style="endArrow=classic;html=1;rounded=0;fontColor=default;labelBackgroundColor=none;" parent="1" source="nOfO4PisgZc-cv4oISs9-3" target="nOfO4PisgZc-cv4oISs9-1" edge="1">
          <mxGeometry width="50" height="50" relative="1" as="geometry">
            <mxPoint x="360" y="300" as="sourcePoint" />
            <mxPoint x="410" y="250" as="targetPoint" />
            <Array as="points">
              <mxPoint x="310" y="220" />
            </Array>
          </mxGeometry>
        </mxCell>
        <mxCell id="nOfO4PisgZc-cv4oISs9-13" value="removeRequest(requestID)" style="edgeLabel;html=1;align=center;verticalAlign=middle;resizable=0;points=[];labelBackgroundColor=none;" parent="nOfO4PisgZc-cv4oISs9-12" vertex="1" connectable="0">
          <mxGeometry x="-0.264" relative="1" as="geometry">
            <mxPoint x="17" y="-10" as="offset" />
          </mxGeometry>
        </mxCell>
        <mxCell id="ttBcZbPd9vu58WAIXtFk-1" value="" style="endArrow=classic;html=1;rounded=0;fontColor=default;labelBackgroundColor=none;" parent="1" source="nOfO4PisgZc-cv4oISs9-1" target="nOfO4PisgZc-cv4oISs9-1" edge="1">
          <mxGeometry width="50" height="50" relative="1" as="geometry">
            <mxPoint x="470" y="350" as="sourcePoint" />
            <mxPoint x="520" y="300" as="targetPoint" />
            <Array as="points">
              <mxPoint x="420" y="250" />
              <mxPoint x="420" y="270" />
              <mxPoint x="410" y="270" />
            </Array>
          </mxGeometry>
        </mxCell>
        <mxCell id="ttBcZbPd9vu58WAIXtFk-2" value="validateRequestExists(requestID)" style="edgeLabel;html=1;align=center;verticalAlign=middle;resizable=0;points=[];labelBackgroundColor=none;" parent="ttBcZbPd9vu58WAIXtFk-1" vertex="1" connectable="0">
          <mxGeometry x="-0.0498" relative="1" as="geometry">
            <mxPoint x="30" as="offset" />
          </mxGeometry>
        </mxCell>
        <mxCell id="ttBcZbPd9vu58WAIXtFk-6" value="" style="endArrow=classic;html=1;rounded=0;fontColor=default;labelBackgroundColor=none;" parent="1" source="nOfO4PisgZc-cv4oISs9-6" target="nOfO4PisgZc-cv4oISs9-1" edge="1">
          <mxGeometry width="50" height="50" relative="1" as="geometry">
            <mxPoint x="470" y="350" as="sourcePoint" />
            <mxPoint x="520" y="300" as="targetPoint" />
            <Array as="points">
              <mxPoint x="490" y="340" />
            </Array>
          </mxGeometry>
        </mxCell>
        <mxCell id="ttBcZbPd9vu58WAIXtFk-7" value="confirmDeletion(success)" style="edgeLabel;html=1;align=center;verticalAlign=middle;resizable=0;points=[];labelBackgroundColor=none;" parent="ttBcZbPd9vu58WAIXtFk-6" vertex="1" connectable="0">
          <mxGeometry x="-0.0865" relative="1" as="geometry">
            <mxPoint y="-10" as="offset" />
          </mxGeometry>
        </mxCell>
      </root>
    </mxGraphModel>
  </diagram>
  <diagram id="vfDihXesxVNZ4Wy-er7z" name="Page-7">
    <mxGraphModel dx="1079" dy="735" grid="1" gridSize="10" guides="1" tooltips="1" connect="1" arrows="1" fold="1" page="1" pageScale="1" pageWidth="850" pageHeight="1100" math="0" shadow="0">
      <root>
        <mxCell id="0" />
        <mxCell id="1" parent="0" />
        <mxCell id="k5g01ZAC26ZnyTh1kPIF-1" value="&lt;div&gt;System&lt;/div&gt;&lt;div&gt;Manager&lt;br&gt;&lt;/div&gt;" style="shape=umlLifeline;perimeter=lifelinePerimeter;whiteSpace=wrap;html=1;container=1;dropTarget=0;collapsible=0;recursiveResize=0;outlineConnect=0;portConstraint=eastwest;newEdgeStyle={&quot;edgeStyle&quot;:&quot;elbowEdgeStyle&quot;,&quot;elbow&quot;:&quot;vertical&quot;,&quot;curved&quot;:0,&quot;rounded&quot;:0};labelBackgroundColor=none;" parent="1" vertex="1">
          <mxGeometry x="340" y="140" width="100" height="330" as="geometry" />
        </mxCell>
        <mxCell id="oP5jfwQLg0lOFMzerJk6-15" value="" style="html=1;points=[[0,0,0,0,5],[0,1,0,0,-5],[1,0,0,0,5],[1,1,0,0,-5]];perimeter=orthogonalPerimeter;outlineConnect=0;targetShapes=umlLifeline;portConstraint=eastwest;newEdgeStyle={&quot;curved&quot;:0,&quot;rounded&quot;:0};labelBackgroundColor=none;" parent="k5g01ZAC26ZnyTh1kPIF-1" vertex="1">
          <mxGeometry x="45" y="70" width="10" height="170" as="geometry" />
        </mxCell>
        <mxCell id="k5g01ZAC26ZnyTh1kPIF-3" value="Admin" style="shape=umlLifeline;perimeter=lifelinePerimeter;whiteSpace=wrap;html=1;container=1;dropTarget=0;collapsible=0;recursiveResize=0;outlineConnect=0;portConstraint=eastwest;newEdgeStyle={&quot;curved&quot;:0,&quot;rounded&quot;:0};participant=umlActor;labelBackgroundColor=none;size=40;" parent="1" vertex="1">
          <mxGeometry x="210" y="140" width="20" height="330" as="geometry" />
        </mxCell>
        <mxCell id="oP5jfwQLg0lOFMzerJk6-14" value="" style="html=1;points=[[0,0,0,0,5],[0,1,0,0,-5],[1,0,0,0,5],[1,1,0,0,-5]];perimeter=orthogonalPerimeter;outlineConnect=0;targetShapes=umlLifeline;portConstraint=eastwest;newEdgeStyle={&quot;curved&quot;:0,&quot;rounded&quot;:0};labelBackgroundColor=none;" parent="k5g01ZAC26ZnyTh1kPIF-3" vertex="1">
          <mxGeometry x="5" y="60" width="10" height="180" as="geometry" />
        </mxCell>
        <mxCell id="k5g01ZAC26ZnyTh1kPIF-5" value="&lt;font face=&quot;Vazirmatn&quot;&gt;انتخاب مسئول برای درخواست&lt;br&gt;&lt;/font&gt;" style="swimlane;whiteSpace=wrap;html=1;labelBackgroundColor=none;" parent="1" vertex="1">
          <mxGeometry x="170" y="70" width="510" height="420" as="geometry" />
        </mxCell>
        <mxCell id="k5g01ZAC26ZnyTh1kPIF-6" value="&lt;div&gt;Data&lt;/div&gt;&lt;div&gt;Handler&lt;br&gt;&lt;/div&gt;" style="shape=umlLifeline;perimeter=lifelinePerimeter;whiteSpace=wrap;html=1;container=1;dropTarget=0;collapsible=0;recursiveResize=0;outlineConnect=0;portConstraint=eastwest;newEdgeStyle={&quot;edgeStyle&quot;:&quot;elbowEdgeStyle&quot;,&quot;elbow&quot;:&quot;vertical&quot;,&quot;curved&quot;:0,&quot;rounded&quot;:0};labelBackgroundColor=none;" parent="k5g01ZAC26ZnyTh1kPIF-5" vertex="1">
          <mxGeometry x="380" y="70" width="100" height="330" as="geometry" />
        </mxCell>
        <mxCell id="oP5jfwQLg0lOFMzerJk6-16" value="" style="html=1;points=[[0,0,0,0,5],[0,1,0,0,-5],[1,0,0,0,5],[1,1,0,0,-5]];perimeter=orthogonalPerimeter;outlineConnect=0;targetShapes=umlLifeline;portConstraint=eastwest;newEdgeStyle={&quot;curved&quot;:0,&quot;rounded&quot;:0};labelBackgroundColor=none;" parent="k5g01ZAC26ZnyTh1kPIF-6" vertex="1">
          <mxGeometry x="45" y="170" width="10" height="40" as="geometry" />
        </mxCell>
        <mxCell id="oP5jfwQLg0lOFMzerJk6-4" value="" style="endArrow=classic;html=1;rounded=0;fontColor=default;labelBackgroundColor=none;" parent="k5g01ZAC26ZnyTh1kPIF-5" edge="1">
          <mxGeometry width="50" height="50" relative="1" as="geometry">
            <mxPoint x="219.81034482758605" y="169.9999999999999" as="sourcePoint" />
            <mxPoint x="219.81034482758605" y="200.00000000000023" as="targetPoint" />
            <Array as="points">
              <mxPoint x="250" y="170" />
              <mxPoint x="250" y="190" />
              <mxPoint x="250" y="200" />
            </Array>
          </mxGeometry>
        </mxCell>
        <mxCell id="oP5jfwQLg0lOFMzerJk6-6" value="validateRequestAndDriver(requestID, driverID)" style="edgeLabel;html=1;align=center;verticalAlign=middle;resizable=0;points=[];labelBackgroundColor=none;" parent="oP5jfwQLg0lOFMzerJk6-4" vertex="1" connectable="0">
          <mxGeometry x="-0.0862" relative="1" as="geometry">
            <mxPoint x="20" as="offset" />
          </mxGeometry>
        </mxCell>
        <mxCell id="oP5jfwQLg0lOFMzerJk6-8" value="" style="endArrow=classic;html=1;rounded=0;fontColor=default;labelBackgroundColor=none;" parent="k5g01ZAC26ZnyTh1kPIF-5" edge="1">
          <mxGeometry width="50" height="50" relative="1" as="geometry">
            <mxPoint x="220.00034482758605" y="209.9999999999999" as="sourcePoint" />
            <mxPoint x="220.00034482758605" y="240.00000000000023" as="targetPoint" />
            <Array as="points">
              <mxPoint x="250.19" y="210" />
              <mxPoint x="250.19" y="230" />
              <mxPoint x="250.19" y="240" />
            </Array>
          </mxGeometry>
        </mxCell>
        <mxCell id="oP5jfwQLg0lOFMzerJk6-9" value="assignDriver(driverID)" style="edgeLabel;html=1;align=center;verticalAlign=middle;resizable=0;points=[];labelBackgroundColor=none;" parent="oP5jfwQLg0lOFMzerJk6-8" vertex="1" connectable="0">
          <mxGeometry x="-0.0862" relative="1" as="geometry">
            <mxPoint x="30" as="offset" />
          </mxGeometry>
        </mxCell>
        <mxCell id="oP5jfwQLg0lOFMzerJk6-10" value="" style="endArrow=classic;html=1;rounded=0;fontColor=default;labelBackgroundColor=none;" parent="k5g01ZAC26ZnyTh1kPIF-5" edge="1">
          <mxGeometry width="50" height="50" relative="1" as="geometry">
            <mxPoint x="219.81034482758605" y="260.0000000000001" as="sourcePoint" />
            <mxPoint x="429.5" y="260.0000000000001" as="targetPoint" />
          </mxGeometry>
        </mxCell>
        <mxCell id="oP5jfwQLg0lOFMzerJk6-11" value="saveData(request)" style="edgeLabel;html=1;align=center;verticalAlign=middle;resizable=0;points=[];labelBackgroundColor=none;" parent="oP5jfwQLg0lOFMzerJk6-10" vertex="1" connectable="0">
          <mxGeometry x="-0.2687" y="1" relative="1" as="geometry">
            <mxPoint x="24" y="-9" as="offset" />
          </mxGeometry>
        </mxCell>
        <mxCell id="oP5jfwQLg0lOFMzerJk6-12" value="" style="endArrow=classic;html=1;rounded=0;fontColor=default;labelBackgroundColor=none;" parent="k5g01ZAC26ZnyTh1kPIF-5" edge="1">
          <mxGeometry width="50" height="50" relative="1" as="geometry">
            <mxPoint x="219.69" y="300.0000000000001" as="sourcePoint" />
            <mxPoint x="50.00034482758605" y="300.0000000000001" as="targetPoint" />
          </mxGeometry>
        </mxCell>
        <mxCell id="oP5jfwQLg0lOFMzerJk6-13" value="confirmDriverAssignment(success)" style="edgeLabel;html=1;align=center;verticalAlign=middle;resizable=0;points=[];labelBackgroundColor=none;" parent="oP5jfwQLg0lOFMzerJk6-12" vertex="1" connectable="0">
          <mxGeometry x="-0.4582" relative="1" as="geometry">
            <mxPoint x="-23" y="-10" as="offset" />
          </mxGeometry>
        </mxCell>
        <mxCell id="oP5jfwQLg0lOFMzerJk6-1" value="" style="endArrow=classic;html=1;rounded=0;fontColor=default;labelBackgroundColor=none;" parent="1" source="k5g01ZAC26ZnyTh1kPIF-3" target="k5g01ZAC26ZnyTh1kPIF-1" edge="1">
          <mxGeometry width="50" height="50" relative="1" as="geometry">
            <mxPoint x="360" y="270" as="sourcePoint" />
            <mxPoint x="410" y="220" as="targetPoint" />
            <Array as="points">
              <mxPoint x="330" y="220" />
            </Array>
          </mxGeometry>
        </mxCell>
        <mxCell id="oP5jfwQLg0lOFMzerJk6-3" value="setRespondent(requestID, driverID)" style="edgeLabel;html=1;align=center;verticalAlign=middle;resizable=0;points=[];labelBackgroundColor=none;" parent="oP5jfwQLg0lOFMzerJk6-1" vertex="1" connectable="0">
          <mxGeometry x="0.0947" y="1" relative="1" as="geometry">
            <mxPoint x="-23" y="-9" as="offset" />
          </mxGeometry>
        </mxCell>
      </root>
    </mxGraphModel>
  </diagram>
  <diagram id="-EFr5vzFpclraVurHbR0" name="Page-8">
    <mxGraphModel dx="1079" dy="735" grid="1" gridSize="10" guides="1" tooltips="1" connect="1" arrows="1" fold="1" page="1" pageScale="1" pageWidth="850" pageHeight="1100" math="0" shadow="0">
      <root>
        <mxCell id="0" />
        <mxCell id="1" parent="0" />
        <mxCell id="YA8JiJns-m91KiX8vpCk-1" value="&lt;div&gt;System&lt;/div&gt;&lt;div&gt;Manager&lt;br&gt;&lt;/div&gt;" style="shape=umlLifeline;perimeter=lifelinePerimeter;whiteSpace=wrap;html=1;container=1;dropTarget=0;collapsible=0;recursiveResize=0;outlineConnect=0;portConstraint=eastwest;newEdgeStyle={&quot;edgeStyle&quot;:&quot;elbowEdgeStyle&quot;,&quot;elbow&quot;:&quot;vertical&quot;,&quot;curved&quot;:0,&quot;rounded&quot;:0};labelBackgroundColor=none;" parent="1" vertex="1">
          <mxGeometry x="340" y="140" width="100" height="330" as="geometry" />
        </mxCell>
        <mxCell id="YA8JiJns-m91KiX8vpCk-31" value="" style="html=1;points=[[0,0,0,0,5],[0,1,0,0,-5],[1,0,0,0,5],[1,1,0,0,-5]];perimeter=orthogonalPerimeter;outlineConnect=0;targetShapes=umlLifeline;portConstraint=eastwest;newEdgeStyle={&quot;curved&quot;:0,&quot;rounded&quot;:0};labelBackgroundColor=none;" parent="YA8JiJns-m91KiX8vpCk-1" vertex="1">
          <mxGeometry x="45" y="70" width="10" height="180" as="geometry" />
        </mxCell>
        <mxCell id="YA8JiJns-m91KiX8vpCk-3" value="Admin" style="shape=umlLifeline;perimeter=lifelinePerimeter;whiteSpace=wrap;html=1;container=1;dropTarget=0;collapsible=0;recursiveResize=0;outlineConnect=0;portConstraint=eastwest;newEdgeStyle={&quot;curved&quot;:0,&quot;rounded&quot;:0};participant=umlActor;labelBackgroundColor=none;size=40;" parent="1" vertex="1">
          <mxGeometry x="210" y="140" width="20" height="330" as="geometry" />
        </mxCell>
        <mxCell id="YA8JiJns-m91KiX8vpCk-30" value="" style="html=1;points=[[0,0,0,0,5],[0,1,0,0,-5],[1,0,0,0,5],[1,1,0,0,-5]];perimeter=orthogonalPerimeter;outlineConnect=0;targetShapes=umlLifeline;portConstraint=eastwest;newEdgeStyle={&quot;curved&quot;:0,&quot;rounded&quot;:0};labelBackgroundColor=none;" parent="YA8JiJns-m91KiX8vpCk-3" vertex="1">
          <mxGeometry x="5" y="70" width="10" height="180" as="geometry" />
        </mxCell>
        <mxCell id="YA8JiJns-m91KiX8vpCk-5" value="&lt;font face=&quot;Vazirmatn&quot;&gt;گروه‌بندی درخواست‌ها&lt;br&gt;&lt;/font&gt;" style="swimlane;whiteSpace=wrap;html=1;labelBackgroundColor=none;" parent="1" vertex="1">
          <mxGeometry x="170" y="70" width="510" height="420" as="geometry" />
        </mxCell>
        <mxCell id="YA8JiJns-m91KiX8vpCk-6" value="&lt;div&gt;Data&lt;/div&gt;&lt;div&gt;Handler&lt;br&gt;&lt;/div&gt;" style="shape=umlLifeline;perimeter=lifelinePerimeter;whiteSpace=wrap;html=1;container=1;dropTarget=0;collapsible=0;recursiveResize=0;outlineConnect=0;portConstraint=eastwest;newEdgeStyle={&quot;edgeStyle&quot;:&quot;elbowEdgeStyle&quot;,&quot;elbow&quot;:&quot;vertical&quot;,&quot;curved&quot;:0,&quot;rounded&quot;:0};labelBackgroundColor=none;" parent="YA8JiJns-m91KiX8vpCk-5" vertex="1">
          <mxGeometry x="380" y="70" width="100" height="330" as="geometry" />
        </mxCell>
        <mxCell id="YA8JiJns-m91KiX8vpCk-32" value="" style="html=1;points=[[0,0,0,0,5],[0,1,0,0,-5],[1,0,0,0,5],[1,1,0,0,-5]];perimeter=orthogonalPerimeter;outlineConnect=0;targetShapes=umlLifeline;portConstraint=eastwest;newEdgeStyle={&quot;curved&quot;:0,&quot;rounded&quot;:0};labelBackgroundColor=none;" parent="YA8JiJns-m91KiX8vpCk-6" vertex="1">
          <mxGeometry x="45" y="190" width="10" height="20" as="geometry" />
        </mxCell>
        <mxCell id="YA8JiJns-m91KiX8vpCk-21" value="" style="endArrow=classic;html=1;rounded=0;fontColor=default;labelBackgroundColor=none;" parent="YA8JiJns-m91KiX8vpCk-5" edge="1">
          <mxGeometry width="50" height="50" relative="1" as="geometry">
            <mxPoint x="219.92857142857133" y="170" as="sourcePoint" />
            <mxPoint x="219.92857142857133" y="200" as="targetPoint" />
            <Array as="points">
              <mxPoint x="250" y="170" />
              <mxPoint x="250" y="200" />
            </Array>
          </mxGeometry>
        </mxCell>
        <mxCell id="YA8JiJns-m91KiX8vpCk-22" value="validateRequests(requestIDs)" style="edgeLabel;html=1;align=center;verticalAlign=middle;resizable=0;points=[];labelBackgroundColor=none;" parent="YA8JiJns-m91KiX8vpCk-21" vertex="1" connectable="0">
          <mxGeometry x="-0.1268" y="-1" relative="1" as="geometry">
            <mxPoint as="offset" />
          </mxGeometry>
        </mxCell>
        <mxCell id="YA8JiJns-m91KiX8vpCk-23" value="" style="endArrow=classic;html=1;rounded=0;fontColor=default;labelBackgroundColor=none;" parent="YA8JiJns-m91KiX8vpCk-5" edge="1">
          <mxGeometry width="50" height="50" relative="1" as="geometry">
            <mxPoint x="219.99857142857132" y="220" as="sourcePoint" />
            <mxPoint x="219.99857142857132" y="250" as="targetPoint" />
            <Array as="points">
              <mxPoint x="250.07" y="220" />
              <mxPoint x="250.07" y="250" />
            </Array>
          </mxGeometry>
        </mxCell>
        <mxCell id="YA8JiJns-m91KiX8vpCk-24" value="updateGroup(groupName) (loop for each request)" style="edgeLabel;html=1;align=center;verticalAlign=middle;resizable=0;points=[];labelBackgroundColor=none;" parent="YA8JiJns-m91KiX8vpCk-23" vertex="1" connectable="0">
          <mxGeometry x="-0.1268" y="-1" relative="1" as="geometry">
            <mxPoint as="offset" />
          </mxGeometry>
        </mxCell>
        <mxCell id="YA8JiJns-m91KiX8vpCk-19" value="" style="endArrow=classic;html=1;rounded=0;fontColor=default;labelBackgroundColor=none;" parent="1" source="YA8JiJns-m91KiX8vpCk-3" target="YA8JiJns-m91KiX8vpCk-1" edge="1">
          <mxGeometry width="50" height="50" relative="1" as="geometry">
            <mxPoint x="400" y="290" as="sourcePoint" />
            <mxPoint x="450" y="240" as="targetPoint" />
            <Array as="points">
              <mxPoint x="300" y="220" />
            </Array>
          </mxGeometry>
        </mxCell>
        <mxCell id="YA8JiJns-m91KiX8vpCk-20" value="groupRequests(requestIDs, groupName)" style="edgeLabel;html=1;align=center;verticalAlign=middle;resizable=0;points=[];labelBackgroundColor=none;" parent="YA8JiJns-m91KiX8vpCk-19" vertex="1" connectable="0">
          <mxGeometry x="0.2174" relative="1" as="geometry">
            <mxPoint x="-13" y="-20" as="offset" />
          </mxGeometry>
        </mxCell>
        <mxCell id="YA8JiJns-m91KiX8vpCk-25" value="" style="endArrow=classic;html=1;rounded=0;fontColor=default;labelBackgroundColor=none;" parent="1" source="YA8JiJns-m91KiX8vpCk-1" target="YA8JiJns-m91KiX8vpCk-6" edge="1">
          <mxGeometry width="50" height="50" relative="1" as="geometry">
            <mxPoint x="300" y="300" as="sourcePoint" />
            <mxPoint x="350" y="250" as="targetPoint" />
            <Array as="points">
              <mxPoint x="500" y="340" />
            </Array>
          </mxGeometry>
        </mxCell>
        <mxCell id="YA8JiJns-m91KiX8vpCk-26" value="saveData(groupedRequests)" style="edgeLabel;html=1;align=center;verticalAlign=middle;resizable=0;points=[];labelBackgroundColor=none;" parent="YA8JiJns-m91KiX8vpCk-25" vertex="1" connectable="0">
          <mxGeometry x="0.244" y="2" relative="1" as="geometry">
            <mxPoint x="-20" y="12" as="offset" />
          </mxGeometry>
        </mxCell>
        <mxCell id="YA8JiJns-m91KiX8vpCk-27" value="" style="endArrow=classic;html=1;rounded=0;fontColor=default;labelBackgroundColor=none;" parent="1" source="YA8JiJns-m91KiX8vpCk-1" target="YA8JiJns-m91KiX8vpCk-3" edge="1">
          <mxGeometry width="50" height="50" relative="1" as="geometry">
            <mxPoint x="370" y="330" as="sourcePoint" />
            <mxPoint x="420" y="280" as="targetPoint" />
            <Array as="points">
              <mxPoint x="300" y="380" />
            </Array>
          </mxGeometry>
        </mxCell>
        <mxCell id="YA8JiJns-m91KiX8vpCk-29" value="confirmGrouping(success)" style="edgeLabel;html=1;align=center;verticalAlign=middle;resizable=0;points=[];labelBackgroundColor=none;" parent="YA8JiJns-m91KiX8vpCk-27" vertex="1" connectable="0">
          <mxGeometry x="-0.1297" relative="1" as="geometry">
            <mxPoint y="-10" as="offset" />
          </mxGeometry>
        </mxCell>
      </root>
    </mxGraphModel>
  </diagram>
</mxfile>
